<svg version="1" xmlns="http://www.w3.org/2000/svg" width="286.667" height="286.667" viewBox="0 0 215.000000 215.000000"><path d="M95.9.4c-.2.2-3 .7-6.2 1C64 4.4 33.4 24 18.2 47.3 13 55.2 7.2 66.4 6.5 69.7c-.2 1-1.1 3.5-1.9 5.5-.9 2.1-1.4 3.8-1.1 3.8.3 0 .2.8-.4 1.7C1.4 84 .5 92.5.5 106.5c0 14.2.4 21.2 1.4 23 .3.5.7 1.9.8 3 1.5 10.1 11.5 30.7 20.3 41.9 4.1 5.4 18.1 18.2 23.9 22 11 7.2 24.6 13.3 33.6 15.1 2.2.5 4.7 1 5.5 1.2 7.9 1.9 27.5 2.4 37 .9 3-.4 6.4-1 7.5-1.1 1.1-.2 2-.4 2-.5 0-.1 1-.3 2.3-.6 4.2-.7 18.3-6.6 24.6-10.1 9.4-5.3 20.1-13.9 27.4-22 3.7-4.1 6.9-8 7.1-8.6.2-.7.7-1.4 1.1-1.7.8-.6 8-11.9 7.8-12.3 0-.1.8-2 1.9-4.2 3-6 7-19.1 8.4-27.5 1.4-8.9 1.9-23.8.8-29.5-.4-2.2-1-5.8-1.3-8-.4-2.2-.9-5.1-1.1-6.5-.9-5.7-11.1-28.9-13.5-31-.3-.3-1.6-2.1-2.8-4-5.4-8.8-16.9-20.1-27.8-27.5-6.2-4.1-19.9-11.3-22.8-12-.6-.1-1.8-.5-2.6-.8-2.1-.8-11.9-3.5-15.5-4.2C123.1.8 96.4-.1 95.9.4zM160.5 106v72.5h-27l-.2-4.3c0-2.3-.2-5.4-.2-7l-.1-2.7-1.9 3c-3 5.1-10.5 10.5-16.6 12.1-21.4 5.8-42.2-2.2-52.5-20.2-5.6-9.6-8.3-21-8.3-34.4.1-11.5 1.7-18.9 6.4-28.7 4.4-9.1 10.2-15.5 18.4-20.3 4.9-2.8 6.8-3.4 15.1-4.9 11.9-2.1 25.4 2 33.6 10.1l4.4 4.5-.1-25.6c0-14.1 0-25.9.2-26.2.1-.3 6.7-.5 14.5-.5l14.3.1V106z"/><path d="M101.6 93.2c-3.8.8-8.9 3.9-11.4 6.8-2.3 2.6-6.1 11.4-6.8 15.5-1.8 10.3-.7 21.4 3 29.8 2.2 5 9.8 12.4 14 13.6 4.7 1.2 14.7.6 18.2-1.2 5.2-2.7 10.9-9.9 12-15.2.1-.6.6-2.6 1-4.5.8-3.9.9-18.8.2-23.5-2-12.2-10.6-21-21.3-21.8-2.8-.2-6.7 0-8.9.5z"/></svg>